{"title":"Mr Robot[S01E03][480p][WEB-DL][AC3][XviD-torentup][Lektor PL]","uid":12645349,"size":619385060,"categoryP":"video","categoryS":"tv_shows","magnet":"?xt=urn:btih:12e3781e661c9d16f95ef1ab4edb038ddc25cd51&amp;dn=Mr+Robot%5BS01E03%5D%5B480p%5D%5BWEB-DL%5D%5BAC3%5D%5BXviD-torentup%5D%5BLektor+PL%5D&amp;tr=udp%3A%2F%2Ftracker.leechers-paradise.org%3A6969&amp;tr=udp%3A%2F%2Fzer0day.ch%3A1337&amp;tr=udp%3A%2F%2Fopen.demonii.com%3A1337&amp;tr=udp%3A%2F%2Ftracker.coppersurfer.tk%3A6969&amp;tr=udp%3A%2F%2Fexodus.desync.com%3A6969","seeders":0,"leechers":1,"uploader":"torentup","files":5,"time":1446048042,"description":"Tytuł:Mr. Robot / Sezon 1 [2015] [Epizodów:10]\r\n============================ \r\n\r\n=====================\r\nINFO\r\n================\r\nOcena:IMDB - 9.0/10 (74711), Filmweb - 8.4/10 (14640)\r\nGatunek: Dramat, Kryminał\r\nProdukcja: USA\r\nStacja telewizyjna: Network\r\nData premiery serialu: 24.05.2015 - Świat\r\nCzas trwania odcinka około 47 min.\r\nTwórcy: Sam Esmail \r\n \nhttp://filmweb.pl/serial/Mr.+Robot-2015-733795 \nhttp://naekranie.pl/seriale/mr-robot \nhttp://fdb.pl/film/670597-mr-robot \nhttp://imdb.com/title/tt4158110/\r\n\r\n\r\n=====================\r\nOPIS\r\n====================\r\n\r\nBohaterem serialu jest Elliot Alderson - młody, aspołeczny haker nastawiony negatywnie do wielkich korporacji. Jego choroba na tle psychicznym znacznie utrudnia kontakty interpersonalne. Najłatwiejszą drogę do &quot;kontaktu&quot; z ludźmi bohater odnajduje w hakowaniu ich. Przez swoje umiejętności, stanowisko specjalisty ds. bezpieczeństwa w firmie AllSafe oraz nastawienie do świata wzbudza zainteresowanie fsociety - podziemnej grupy anarchistycznych black hat hakerów. Przez taki obrót spraw bohater za dnia jest niewyróżniającym się pracownikiem korporacji, a w nocy hakerem walczącym o wolność społeczeństwa. \r\n\r\n=====================\r\nOBSADA\r\n====================\r\n\r\n★ Rami Malek .... Elliot Alderson\r\n★ Christian Slater .... Pan Robot\r\n★ Portia Doubleday .... Angela Moss\r\n★ Carly Chaikin .... Darlene\r\n★ Martin Wallström .... Tyrell Wellick\r\n★ Michael Gill .... Gideon Goddard\r\n★ Ben Rappaport .... Ollie Parker\r\n★ Aaron Takahashi .... Lloyd Chung \r\n\r\n=====================\r\nDANE TECHNICZNE\r\n=====================\r\nFormat                         : AVI\r\nFormat/Info                    : Audio Video Interleave\r\nFile size                      : 519 MiB\r\nDuration                       : 1h 4mn\r\nOverall bit rate               : 1 117 Kbps\r\nWriting application            : Lavf56.1.100\r\n\r\nVideo\r\nID                             : 0\r\nFormat                         : MPEG-4 Visual\r\nFormat profile                 :   \r\nFormat settings, BVOP          : No\r\nFormat settings, QPel          : No\r\nFormat settings, GMC           : No warppoints\r\nFormat settings, Matrix        : Default (H.263)\r\nCodec ID                       : XVID\r\nCodec ID/Hint                  : XviD\r\nDuration                       : 1h 4mn\r\nBit rate                       : 976 Kbps\r\nWidth                          : 624 pixels\r\nHeight                         : 352 pixels\r\nDisplay aspect ratio           : 16:9\r\nOriginal display aspect ratio  : 16:9\r\nFrame rate                     : 23.976 fps\r\nColor space                    : YUV\r\nChroma subsampling             : 4:2:0\r\nBit depth                      : 8 bits\r\nScan type                      : Progressive\r\nCompression mode               : Lossy\r\nBits/(Pixel*Frame)             : 0.185\r\nStream size                    : 454 MiB (87%)\r\nWriting library                : Lavc56.0.101\r\n\r\nAudio\r\nID                             : 1\r\nFormat                         : MPEG Audio\r\nFormat version                 : Version 1\r\nFormat profile                 : Layer 3\r\nMode                           : Joint stereo\r\nCodec ID                       : 55\r\nCodec ID/Hint                  : MP3\r\nDuration                       : 1h 4mn\r\nBit rate mode                  : Constant\r\nBit rate                       : 128 Kbps\r\nChannel(s)                     : 2 channels\r\nSampling rate                  : 48.0 KHz\r\nCompression mode               : Lossy\r\nStream size                    : 59.5 MiB (11%)\r\nAlignment                      : Aligned on interleaves\r\nInterleave, duration           : 24 ms (0.58 video frame)\r\nInterleave, preload duration   : 72 ms","torrent":{"xt":"urn:btih:12e3781e661c9d16f95ef1ab4edb038ddc25cd51","amp;dn":"Mr+Robot%5BS01E03%5D%5B480p%5D%5BWEB-DL%5D%5BAC3%5D%5BXviD-torentup%5D%5BLektor+PL%5D","amp;tr":["udp%3A%2F%2Ftracker.leechers-paradise.org%3A6969","udp%3A%2F%2Fzer0day.ch%3A1337","udp%3A%2F%2Fopen.demonii.com%3A1337","udp%3A%2F%2Ftracker.coppersurfer.tk%3A6969","udp%3A%2F%2Fexodus.desync.com%3A6969"],"infoHash":"12e3781e661c9d16f95ef1ab4edb038ddc25cd51","infoHashBuffer":{"type":"Buffer","data":[18,227,120,30,102,28,157,22,249,94,241,171,78,219,3,141,220,37,205,81]},"announce":[],"urlList":[]}}